<svg id="Capa_1" enable-background="new 0 0 512 512" height="512" viewBox="0 0 512 512" width="512" xmlns="http://www.w3.org/2000/svg"><g><path d="m256 7.5v497c137.243 0 248.5-111.257 248.5-248.5s-111.257-248.5-248.5-248.5z" fill="#bfebff"/><path d="m474.5 256c0-137.243-97.826-248.5-218.5-248.5-137.243 0-248.5 111.257-248.5 248.5s111.257 248.5 248.5 248.5c120.674 0 218.5-111.257 218.5-248.5z" fill="#e8f8ff"/><circle cx="256" cy="256" fill="#a7d1eb" r="188.5"/><circle cx="256" cy="256" fill="#3a4e66" r="143.5"/><path d="m206.825 137.281v-15l-55.826 15c-30.547 27.038-50.578 65.677-53.195 109.021h19.739l19.739-39.478z" fill="#5a7ba0"/><path d="m137.281 206.825-39.474 39.475c-2.481 40.718 10.677 82.205 39.475 114.704l13.957-13.957-13.957-41.872v-98.35z" fill="#7397b8"/><path d="m137.281 305.175v55.826c27.038 30.547 65.677 50.578 109.021 53.195v-19.739l-39.478-19.739z" fill="#5a7ba0"/><path d="m206.825 374.719 39.475 39.475c40.718 2.481 82.205-10.677 114.704-39.475l-13.957-13.957-41.872 13.957z" fill="#7397b8"/><path d="m305.175 374.719h55.826c30.547-27.038 50.578-65.677 53.195-109.021h-19.739l-19.739 39.478z" fill="#5a7ba0"/><path d="m374.719 305.175 39.475-39.475c2.481-40.718-10.677-82.205-39.475-114.704l-13.957 13.957 13.957 41.872z" fill="#7397b8"/><path d="m374.719 206.825v-55.826c-27.038-30.547-65.677-50.578-109.021-53.195v19.739l39.478 19.739z" fill="#5a7ba0"/><path d="m305.175 137.281-39.475-39.474c-40.718-2.481-82.205 10.677-114.704 39.475h55.83 98.349z" fill="#7397b8"/><path d="m437.02 74.98c-48.352-48.351-112.64-74.98-181.02-74.98s-132.668 26.629-181.02 74.98c-48.351 48.353-74.98 112.64-74.98 181.02s26.629 132.667 74.98 181.02c48.352 48.351 112.64 74.98 181.02 74.98s132.668-26.629 181.02-74.98c48.351-48.353 74.98-112.64 74.98-181.02s-26.629-132.667-74.98-181.02zm-181.02 422.02c-132.888 0-241-108.112-241-241s108.112-241 241-241 241 108.112 241 241-108.112 241-241 241z"/><path d="m256 60c-46.574 0-91.721 16.63-127.122 46.826-3.151 2.688-3.527 7.422-.839 10.573s7.421 3.528 10.573.839c32.69-27.882 74.379-43.238 117.388-43.238 99.804 0 181 81.196 181 181s-81.196 181-181 181-181-81.196-181-181c0-43.009 15.355-84.698 43.238-117.388 2.688-3.151 2.313-7.885-.839-10.573-3.151-2.689-7.886-2.311-10.573.839-30.196 35.402-46.826 80.548-46.826 127.122 0 108.075 87.925 196 196 196s196-87.925 196-196-87.925-196-196-196z"/><path d="m256 422c91.532 0 166-74.467 166-166s-74.468-166-166-166-166 74.467-166 166 74.468 166 166 166zm-150.854-172.433 24.635-24.635v113.853c-15.655-23.789-24.781-52.239-24.781-82.785 0-2.156.056-4.299.146-6.433zm196.922-104.786 65.151 65.151v92.136l-65.151 65.151h-92.135l-65.151-65.151v-92.136l65.151-65.151zm-157.287 213.24v-34.74l80.595 80.595c-31.57-6.528-59.563-22.946-80.595-45.855zm104.787 48.833-24.635-24.635h113.852c-23.789 15.655-52.239 24.781-82.785 24.781-2.156 0-4.298-.056-6.432-.146zm108.453-39.635h-34.74l80.595-80.595c-6.528 31.57-22.946 59.564-45.855 80.595zm48.833-104.786-24.635 24.635v-113.853c15.655 23.789 24.781 52.239 24.781 82.785 0 2.156-.056 4.299-.146 6.433zm-39.635-108.454v34.74l-80.595-80.595c31.57 6.528 59.564 22.946 80.595 45.855zm-104.787-48.833 24.635 24.635h-113.852c23.789-15.655 52.239-24.781 82.785-24.781 2.156 0 4.298.056 6.432.146zm-108.453 39.635h34.74l-80.595 80.595c6.528-31.57 22.946-59.563 45.855-80.595z"/></g></svg>