<svg id="Capa_1" enable-background="new 0 0 512 512" height="512" viewBox="0 0 512 512" width="512" xmlns="http://www.w3.org/2000/svg"><g><path d="m256 7.5v497c137.243 0 248.5-111.257 248.5-248.5s-111.257-248.5-248.5-248.5z" fill="#bfebff"/><path d="m474.5 256c0-137.243-97.826-248.5-218.5-248.5-137.243 0-248.5 111.257-248.5 248.5s111.257 248.5 248.5 248.5c120.674 0 218.5-111.257 218.5-248.5z" fill="#e8f8ff"/><circle cx="256" cy="256" fill="#a7d1eb" r="188.5"/><path d="m398.9 187.347c-18.105-37.616-50.629-66.975-90.4-80.933l-121.153 6.686c-37.616 18.105-66.974 50.629-80.932 90.4l6.686 121.153c18.105 37.616 50.629 66.974 90.4 80.932l121.153-6.686c37.616-18.105 66.974-50.629 80.932-90.4z" fill="#7397b8"/><g fill="#5a7ba0"><path d="m234.254 203.5h-127.84c-5.767 16.432-8.914 34.097-8.914 52.5 0 24.595 5.603 47.881 15.6 68.653l90.4-90.4h30.754z"/><path d="m203.5 277.746v127.84c16.432 5.767 34.097 8.914 52.5 8.914 24.595 0 47.881-5.603 68.653-15.6l-90.4-90.4v-30.754z"/><path d="m277.746 308.5h127.84c5.767-16.432 8.914-34.097 8.914-52.5 0-24.595-5.603-47.881-15.6-68.653l-90.4 90.4h-30.754z"/><path d="m308.5 234.254v-127.84c-16.432-5.767-34.097-8.914-52.5-8.914-24.595 0-47.881 5.603-68.653 15.6l90.4 90.4v30.754z"/></g><path d="m308.5 234.254-30.754-30.754h-43.492l-30.754 30.754v43.492l30.754 30.754h43.492l30.754-30.754z" fill="#3a4e66"/><path d="m437.02 74.98c-48.352-48.351-112.64-74.98-181.02-74.98s-132.668 26.629-181.02 74.98c-48.351 48.353-74.98 112.64-74.98 181.02s26.629 132.667 74.98 181.02c48.352 48.351 112.64 74.98 181.02 74.98s132.668-26.629 181.02-74.98c48.351-48.353 74.98-112.64 74.98-181.02s-26.629-132.667-74.98-181.02zm-181.02 422.02c-132.888 0-241-108.112-241-241s108.112-241 241-241 241 108.112 241 241-108.112 241-241 241z"/><path d="m256 422c91.532 0 166-74.467 166-166s-74.468-166-166-166-166 74.467-166 166 74.468 166 166 166zm45-184.639v37.278l-26.361 26.361h-37.278l-26.361-26.361v-37.278l26.361-26.361h37.278zm-185.41 74.196c-6.831-17.204-10.59-35.95-10.59-55.557 0-15.666 2.4-30.781 6.848-45h104.299zm6.691 14.523 73.719-73.719v142.193c-31.665-13.765-57.722-38.075-73.719-68.474zm88.719 74.072v-104.299l100.557 100.557c-17.204 6.831-35.95 10.59-55.557 10.59-15.666 0-30.781-2.4-45-6.848zm115.08-10.433-73.719-73.719h142.193c-13.765 31.665-38.075 57.722-68.474 73.719zm74.072-88.719h-104.299l100.557-100.557c6.831 17.204 10.59 35.95 10.59 55.557 0 15.666-2.4 30.781-6.848 45zm-10.433-115.08-73.719 73.719v-142.193c31.665 13.765 57.722 38.075 73.719 68.474zm-88.719-74.072v104.299l-100.557-100.557c17.204-6.831 35.95-10.59 55.557-10.59 15.666 0 30.781 2.4 45 6.848zm-115.08 10.433 73.719 73.719h-142.193c13.765-31.665 38.075-57.722 68.474-73.719z"/><path d="m256 60c-46.574 0-91.721 16.63-127.122 46.826-3.151 2.688-3.527 7.422-.839 10.573 2.687 3.151 7.421 3.528 10.573.839 32.69-27.882 74.379-43.238 117.388-43.238 99.804 0 181 81.196 181 181s-81.196 181-181 181-181-81.196-181-181c0-43.009 15.355-84.698 43.238-117.388 2.688-3.151 2.313-7.885-.839-10.573-3.152-2.689-7.886-2.311-10.573.839-30.196 35.402-46.826 80.548-46.826 127.122 0 108.075 87.925 196 196 196s196-87.925 196-196-87.925-196-196-196z"/></g></svg>