<svg id="color_1_" enable-background="new 0 0 24 24" height="512" viewBox="0 0 24 24" width="512" xmlns="http://www.w3.org/2000/svg"><path d="m17.25 7h-1.75l-.2-.1-.9-1.199c-.328-.439-.851-.701-1.4-.701h-2c-.549 0-1.072.262-1.4.7l-.9 1.2-.2.1h-1.75c-.965 0-1.75.785-1.75 1.75v6.5c0 .965.785 1.75 1.75 1.75h10.5c.965 0 1.75-.785 1.75-1.75v-6.5c0-.965-.785-1.75-1.75-1.75z" fill="#00bcd4"/><path d="m12 9c-1.654 0-3 1.346-3 3s1.346 3 3 3 3-1.346 3-3-1.346-3-3-3z" fill="#fafafa"/><path d="m23 10.75c-.552 0-1 .448-1 1 0 5.652-4.598 10.25-10.25 10.25-1.626 0-3.182-.38-4.595-1.095l1.625-1.625c.214-.214.279-.537.163-.817s-.39-.463-.693-.463h-4.5c-.414 0-.75.336-.75.75v4.5c0 .303.183.577.463.693.093.038.19.057.287.057.195 0 .387-.076.53-.22l1.4-1.4c1.839 1.05 3.936 1.62 6.07 1.62 6.755 0 12.25-5.495 12.25-12.25 0-.552-.448-1-1-1z" fill="#607d8b"/><path d="m21.537.057c-.28-.117-.603-.052-.817.163l-1.784 1.784c-1.979-1.294-4.301-2.004-6.686-2.004-6.755 0-12.25 5.495-12.25 12.25 0 .552.448 1 1 1s1-.448 1-1c0-5.652 4.598-10.25 10.25-10.25 1.854 0 3.664.51 5.239 1.45l-1.27 1.27c-.214.214-.279.537-.163.817.117.28.391.463.694.463h4.5c.414 0 .75-.336.75-.75v-4.5c0-.303-.183-.577-.463-.693z" fill="#607d8b"/><path d="m12 5h-1c-.549 0-1.072.262-1.4.7l-.9 1.2-.2.1h-1.75c-.965 0-1.75.785-1.75 1.75v6.5c0 .965.785 1.75 1.75 1.75h5.25v-2c-1.654 0-3-1.346-3-3s1.346-3 3-3z" fill="#00a4b9"/><path d="m12 9c-1.654 0-3 1.346-3 3s1.346 3 3 3z" fill="#dadada"/><g fill="#546d79"><path d="m8.25 18h-4.5c-.414 0-.75.336-.75.75v4.5c0 .303.183.577.463.693.093.038.19.057.287.057.195 0 .387-.076.53-.22l1.4-1.4c1.839 1.05 3.936 1.62 6.07 1.62.084 0 .167-.001.25-.003v-2c-.083.002-.167.003-.25.003-1.626 0-3.182-.38-4.595-1.095l1.625-1.625c.214-.214.279-.537.163-.817s-.39-.463-.693-.463z"/><path d="m12 .003c-6.64.133-12 5.576-12 12.247 0 .552.448 1 1 1s1-.448 1-1c0-5.568 4.463-10.114 10-10.247z"/></g></svg>